<svg width="163" height="180" viewBox="0 0 163 180" fill="none" xmlns="http://www.w3.org/2000/svg">
<g filter="url(#filter0_d)">
<circle r="47.5" transform="matrix(-1 0 0 1 77.5 73.5)" fill="#EDEDED"/>
</g>
<path d="M122.65 121.089H120.795V122.173H122.65V124.287H123.803V122.173H125.668V121.089H123.803V119.111H122.65V121.089Z" fill="#F2F2F2"/>
<path d="M90.9512 109.267H85.3848V112.519H90.9512V118.861H94.4082V112.519H100.004V109.267H94.4082V103.334H90.9512V109.267Z" fill="#F2F2F2"/>
<path d="M100.437 83.8652C100.437 83.2158 100.356 82.6982 100.195 82.3125C100.034 81.9268 99.7163 81.5044 99.2427 81.0454C98.7642 80.5815 98.4614 80.252 98.3345 80.0566C98.1392 79.7588 98.0415 79.4365 98.0415 79.0898C98.0415 78.6309 98.1562 78.2817 98.3857 78.0425C98.6104 77.7983 98.9424 77.6763 99.3818 77.6763C99.8018 77.6763 100.141 77.7959 100.4 78.0352C100.654 78.2695 100.781 78.5894 100.781 78.9946H102.561C102.551 78.1304 102.258 77.4468 101.682 76.9438C101.101 76.4409 100.334 76.1895 99.3818 76.1895C98.4004 76.1895 97.6362 76.4385 97.0894 76.9365C96.5376 77.4346 96.2617 78.1304 96.2617 79.0239C96.2617 79.8198 96.6328 80.6035 97.375 81.375L98.2759 82.2612C98.5981 82.6274 98.7642 83.1621 98.7739 83.8652H100.437ZM100.561 86.1431C100.561 85.855 100.471 85.623 100.29 85.4473C100.109 85.2666 99.8652 85.1763 99.5576 85.1763C99.2451 85.1763 98.9985 85.269 98.8179 85.4546C98.6372 85.6353 98.5469 85.8647 98.5469 86.1431C98.5469 86.4116 98.6348 86.6362 98.8105 86.8169C98.9863 86.9976 99.2354 87.0879 99.5576 87.0879C99.8799 87.0879 100.129 86.9976 100.305 86.8169C100.476 86.6362 100.561 86.4116 100.561 86.1431Z" fill="#F2F2F2"/>
<path d="M155.437 63.8652C155.437 63.2158 155.356 62.6982 155.195 62.3125C155.034 61.9268 154.716 61.5044 154.243 61.0454C153.764 60.5815 153.461 60.252 153.334 60.0566C153.139 59.7588 153.042 59.4365 153.042 59.0898C153.042 58.6309 153.156 58.2817 153.386 58.0425C153.61 57.7983 153.942 57.6763 154.382 57.6763C154.802 57.6763 155.141 57.7959 155.4 58.0352C155.654 58.2695 155.781 58.5894 155.781 58.9946H157.561C157.551 58.1304 157.258 57.4468 156.682 56.9438C156.101 56.4409 155.334 56.1895 154.382 56.1895C153.4 56.1895 152.636 56.4385 152.089 56.9365C151.538 57.4346 151.262 58.1304 151.262 59.0239C151.262 59.8198 151.633 60.6035 152.375 61.375L153.276 62.2612C153.598 62.6274 153.764 63.1621 153.774 63.8652H155.437ZM155.561 66.1431C155.561 65.855 155.471 65.623 155.29 65.4473C155.109 65.2666 154.865 65.1763 154.558 65.1763C154.245 65.1763 153.999 65.269 153.818 65.4546C153.637 65.6353 153.547 65.8647 153.547 66.1431C153.547 66.4116 153.635 66.6362 153.811 66.8169C153.986 66.9976 154.235 67.0879 154.558 67.0879C154.88 67.0879 155.129 66.9976 155.305 66.8169C155.476 66.6362 155.561 66.4116 155.561 66.1431Z" fill="#F2F2F2"/>
<path d="M65.4365 71.8652C65.4365 71.2158 65.356 70.6982 65.1948 70.3125C65.0337 69.9268 64.7163 69.5044 64.2427 69.0454C63.7642 68.5815 63.4614 68.252 63.3345 68.0566C63.1392 67.7588 63.0415 67.4365 63.0415 67.0898C63.0415 66.6309 63.1562 66.2817 63.3857 66.0425C63.6104 65.7983 63.9424 65.6763 64.3818 65.6763C64.8018 65.6763 65.1411 65.7959 65.3999 66.0352C65.6538 66.2695 65.7808 66.5894 65.7808 66.9946H67.5605C67.5508 66.1304 67.2578 65.4468 66.6816 64.9438C66.1006 64.4409 65.334 64.1895 64.3818 64.1895C63.4004 64.1895 62.6362 64.4385 62.0894 64.9365C61.5376 65.4346 61.2617 66.1304 61.2617 67.0239C61.2617 67.8198 61.6328 68.6035 62.375 69.375L63.2759 70.2612C63.5981 70.6274 63.7642 71.1621 63.7739 71.8652H65.4365ZM65.561 74.1431C65.561 73.855 65.4707 73.623 65.29 73.4473C65.1094 73.2666 64.8652 73.1763 64.5576 73.1763C64.2451 73.1763 63.9985 73.269 63.8179 73.4546C63.6372 73.6353 63.5469 73.8647 63.5469 74.1431C63.5469 74.4116 63.6348 74.6362 63.8105 74.8169C63.9863 74.9976 64.2354 75.0879 64.5576 75.0879C64.8799 75.0879 65.1289 74.9976 65.3047 74.8169C65.4756 74.6362 65.561 74.4116 65.561 74.1431Z" fill="#F2F2F2"/>
<path d="M67.9238 34.2383C67.9238 33.459 67.8271 32.8379 67.6338 32.375C67.4404 31.9121 67.0596 31.4053 66.4912 30.8545C65.917 30.2979 65.5537 29.9023 65.4014 29.668C65.167 29.3105 65.0498 28.9238 65.0498 28.5078C65.0498 27.957 65.1875 27.5381 65.4629 27.251C65.7324 26.958 66.1309 26.8115 66.6582 26.8115C67.1621 26.8115 67.5693 26.9551 67.8799 27.2422C68.1846 27.5234 68.3369 27.9072 68.3369 28.3936H70.4727C70.4609 27.3564 70.1094 26.5361 69.418 25.9326C68.7207 25.3291 67.8008 25.0273 66.6582 25.0273C65.4805 25.0273 64.5635 25.3262 63.9072 25.9238C63.2451 26.5215 62.9141 27.3564 62.9141 28.4287C62.9141 29.3838 63.3594 30.3242 64.25 31.25L65.3311 32.3135C65.7178 32.7529 65.917 33.3945 65.9287 34.2383H67.9238ZM68.0732 36.9717C68.0732 36.626 67.9648 36.3477 67.748 36.1367C67.5312 35.9199 67.2383 35.8115 66.8691 35.8115C66.4941 35.8115 66.1982 35.9229 65.9814 36.1455C65.7646 36.3623 65.6562 36.6377 65.6562 36.9717C65.6562 37.2939 65.7617 37.5635 65.9727 37.7803C66.1836 37.9971 66.4824 38.1055 66.8691 38.1055C67.2559 38.1055 67.5547 37.9971 67.7656 37.7803C67.9707 37.5635 68.0732 37.2939 68.0732 36.9717Z" fill="#F2F2F2"/>
<path d="M68.582 113.82C68.582 112.954 68.4746 112.264 68.2598 111.75C68.0449 111.236 67.6217 110.673 66.9902 110.061C66.3522 109.442 65.9486 109.003 65.7793 108.742C65.5189 108.345 65.3887 107.915 65.3887 107.453C65.3887 106.841 65.5417 106.376 65.8477 106.057C66.1471 105.731 66.5898 105.568 67.1758 105.568C67.7357 105.568 68.1882 105.728 68.5332 106.047C68.8717 106.359 69.041 106.786 69.041 107.326H71.4141C71.401 106.174 71.0104 105.262 70.2422 104.592C69.4674 103.921 68.4453 103.586 67.1758 103.586C65.8672 103.586 64.8483 103.918 64.1191 104.582C63.3835 105.246 63.0156 106.174 63.0156 107.365C63.0156 108.426 63.5104 109.471 64.5 110.5L65.7012 111.682C66.1309 112.17 66.3522 112.883 66.3652 113.82H68.582ZM68.748 116.857C68.748 116.473 68.6276 116.164 68.3867 115.93C68.1458 115.689 67.8203 115.568 67.4102 115.568C66.9935 115.568 66.6647 115.692 66.4238 115.939C66.1829 116.18 66.0625 116.486 66.0625 116.857C66.0625 117.215 66.1797 117.515 66.4141 117.756C66.6484 117.997 66.9805 118.117 67.4102 118.117C67.8398 118.117 68.1719 117.997 68.4062 117.756C68.6341 117.515 68.748 117.215 68.748 116.857Z" fill="#F2F2F2"/>
<path d="M116.873 165.73C116.873 164.432 116.712 163.396 116.39 162.625C116.067 161.854 115.433 161.009 114.485 160.091C113.528 159.163 112.923 158.504 112.669 158.113C112.278 157.518 112.083 156.873 112.083 156.18C112.083 155.262 112.312 154.563 112.771 154.085C113.221 153.597 113.885 153.353 114.764 153.353C115.604 153.353 116.282 153.592 116.8 154.07C117.308 154.539 117.562 155.179 117.562 155.989H121.121C121.102 154.261 120.516 152.894 119.363 151.888C118.201 150.882 116.668 150.379 114.764 150.379C112.801 150.379 111.272 150.877 110.179 151.873C109.075 152.869 108.523 154.261 108.523 156.048C108.523 157.64 109.266 159.207 110.75 160.75L112.552 162.522C113.196 163.255 113.528 164.324 113.548 165.73H116.873ZM117.122 170.286C117.122 169.71 116.941 169.246 116.58 168.895C116.219 168.533 115.73 168.353 115.115 168.353C114.49 168.353 113.997 168.538 113.636 168.909C113.274 169.271 113.094 169.729 113.094 170.286C113.094 170.823 113.27 171.272 113.621 171.634C113.973 171.995 114.471 172.176 115.115 172.176C115.76 172.176 116.258 171.995 116.609 171.634C116.951 171.272 117.122 170.823 117.122 170.286Z" fill="#F2F2F2"/>
<path d="M139.873 104.73C139.873 103.432 139.712 102.396 139.39 101.625C139.067 100.854 138.433 100.009 137.485 99.0908C136.528 98.1631 135.923 97.5039 135.669 97.1133C135.278 96.5176 135.083 95.873 135.083 95.1797C135.083 94.2617 135.312 93.5635 135.771 93.085C136.221 92.5967 136.885 92.3525 137.764 92.3525C138.604 92.3525 139.282 92.5918 139.8 93.0703C140.308 93.5391 140.562 94.1787 140.562 94.9893H144.121C144.102 93.2607 143.516 91.8936 142.363 90.8877C141.201 89.8818 139.668 89.3789 137.764 89.3789C135.801 89.3789 134.272 89.877 133.179 90.873C132.075 91.8691 131.523 93.2607 131.523 95.0479C131.523 96.6396 132.266 98.207 133.75 99.75L135.552 101.522C136.196 102.255 136.528 103.324 136.548 104.73H139.873ZM140.122 109.286C140.122 108.71 139.941 108.246 139.58 107.895C139.219 107.533 138.73 107.353 138.115 107.353C137.49 107.353 136.997 107.538 136.636 107.909C136.274 108.271 136.094 108.729 136.094 109.286C136.094 109.823 136.27 110.272 136.621 110.634C136.973 110.995 137.471 111.176 138.115 111.176C138.76 111.176 139.258 110.995 139.609 110.634C139.951 110.272 140.122 109.823 140.122 109.286Z" fill="#F2F2F2"/>
<path d="M37.291 140.91C37.291 140.477 37.2373 140.132 37.1299 139.875C37.0225 139.618 36.8109 139.336 36.4951 139.03C36.1761 138.721 35.9743 138.501 35.8896 138.371C35.7594 138.173 35.6943 137.958 35.6943 137.727C35.6943 137.421 35.7708 137.188 35.9238 137.028C36.0736 136.866 36.2949 136.784 36.5879 136.784C36.8678 136.784 37.0941 136.864 37.2666 137.023C37.4359 137.18 37.5205 137.393 37.5205 137.663H38.707C38.7005 137.087 38.5052 136.631 38.1211 136.296C37.7337 135.961 37.2227 135.793 36.5879 135.793C35.9336 135.793 35.4242 135.959 35.0596 136.291C34.6917 136.623 34.5078 137.087 34.5078 137.683C34.5078 138.213 34.7552 138.736 35.25 139.25L35.8506 139.841C36.0654 140.085 36.1761 140.441 36.1826 140.91H37.291ZM37.374 142.429C37.374 142.237 37.3138 142.082 37.1934 141.965C37.0729 141.844 36.9102 141.784 36.7051 141.784C36.4967 141.784 36.3324 141.846 36.2119 141.97C36.0915 142.09 36.0312 142.243 36.0312 142.429C36.0312 142.608 36.0898 142.757 36.207 142.878C36.3242 142.998 36.4902 143.059 36.7051 143.059C36.9199 143.059 37.0859 142.998 37.2031 142.878C37.3171 142.757 37.374 142.608 37.374 142.429Z" fill="#F2F2F2"/>
<path d="M92.6406 147.742H89.6719V149.477H92.6406V152.859H94.4844V149.477H97.4688V147.742H94.4844V144.578H92.6406V147.742Z" fill="#F2F2F2"/>
<path d="M65.6406 51.7422H62.6719V53.4766H65.6406V56.8594H67.4844V53.4766H70.4688V51.7422H67.4844V48.5781H65.6406V51.7422Z" fill="#F2F2F2"/>
<path d="M141.311 134.524H138.713V136.042H141.311V139.002H142.924V136.042H145.535V134.524H142.924V131.756H141.311V134.524Z" fill="#F2F2F2"/>
<path d="M157.976 86.1333H155.192V87.7593H157.976V90.9307H159.704V87.7593H162.502V86.1333H159.704V83.167H157.976V86.1333Z" fill="#F2F2F2"/>
<path d="M130.291 51.8311H125.467V54.6494H130.291V60.1465H133.287V54.6494H138.137V51.8311H133.287V46.6895H130.291V51.8311Z" fill="#F2F2F2"/>
<path d="M94.9707 43.96H91.6309V45.9111H94.9707V49.7168H97.0449V45.9111H100.402V43.96H97.0449V40.4004H94.9707V43.96Z" fill="#F2F2F2"/>
<path d="M43.9414 70.9199H37.2617V74.8223H43.9414V82.4336H48.0898V74.8223H54.8047V70.9199H48.0898V63.8008H43.9414V70.9199Z" fill="#F2F2F2"/>
<path d="M38.3008 94.1777H34.5898V96.3457H38.3008V100.574H40.6055V96.3457H44.3359V94.1777H40.6055V90.2227H38.3008V94.1777Z" fill="#F2F2F2"/>
<path d="M79.3154 128.698H77.2744V129.89H79.3154V132.216H80.583V129.89H82.6348V128.698H80.583V126.522H79.3154V128.698Z" fill="#F2F2F2"/>
<path d="M69.4707 91.1665H74.3413V89.3481H69.4707V91.1665Z" fill="#F2F2F2"/>
<path d="M118.27 90.3682H125.96V87.4971H118.27V90.3682Z" fill="#F2F2F2"/>
<path d="M100.799 124.202H103.619V123.149H100.799V124.202Z" fill="#F2F2F2"/>
<path d="M90.7988 67.2017H93.6187V66.1489H90.7988V67.2017Z" fill="#F2F2F2"/>
<path d="M155.725 119.64H162.133V117.248H155.725V119.64Z" fill="#F2F2F2"/>
<path d="M123.799 146.202H126.619V145.149H123.799V146.202Z" fill="#F2F2F2"/>
<path d="M61.2695 161.368H68.96V158.497H61.2695V161.368Z" fill="#F2F2F2"/>
<path d="M47.2695 127.368H54.96V124.497H47.2695V127.368Z" fill="#F2F2F2"/>
<g clip-path="url(#clip0)">
<path d="M97.4676 76.6214C97.9148 77.5135 97.7406 78.5917 97.036 79.2969L96.4701 79.8629C94.8349 77.9251 92.9291 75.8222 90.6176 73.5114C90.4543 73.348 90.2861 73.2691 90.1222 73.1184L93.7632 69.4768C95.88 73.3053 97.1144 75.9211 97.4676 76.6214Z" fill="#333333"/>
<path d="M77.5255 86.6037C79.8423 88.9206 81.9398 90.83 83.8667 92.4664L83.1 93.2331C82.3888 93.9443 81.3003 94.1154 80.4053 93.655C79.2065 93.0372 77.3211 92.15 73.3191 89.9211L77.1319 86.1083C77.2826 86.2728 77.3615 86.4404 77.5255 86.6037V86.6037Z" fill="#333333"/>
<path d="M78.759 74.7482C80.4315 73.0756 85.1352 74.5752 87.3447 76.7842C94.7365 84.1759 98.075 89.4166 99.574 92.511C100.004 93.3976 99.8247 94.459 99.128 95.1557C98.43 95.8543 97.3668 96.0315 96.4796 95.6018C93.4545 94.1329 88.2777 90.8101 80.798 83.3309C78.3684 80.9002 77.1696 76.3381 78.7571 74.75L78.759 74.7482Z" fill="#C50143"/>
<path d="M101.775 56.8148L108.322 63.361C109.062 64.1011 109.214 65.2469 108.689 66.1546C108.178 67.0502 107.106 67.5065 106.086 67.2334C102.548 66.2848 99.435 65.8839 97.3388 66.4216C94.3565 61.1194 91.1518 56.2386 87.7579 51.805C89.721 50.5465 96.2081 51.2474 101.775 56.8148V56.8148Z" fill="#C50143"/>
<path d="M69.825 104.752C68.9335 105.203 67.8541 105.028 67.1483 104.322L60.6015 97.7758C55.5332 92.7063 54.6412 86.1655 55.7912 84.0916C60.7359 87.8182 65.7451 90.965 70.4186 93.5995C70.0962 95.4203 70.3107 97.1869 71.0732 102.346C71.2221 103.345 70.7061 104.311 69.825 104.752V104.752Z" fill="#C50143"/>
<path d="M63.0504 49.2169C65.7573 51.9243 65.7573 56.3284 63.0504 59.0358C60.343 61.7432 55.9383 61.7432 53.2309 59.0358C50.5235 56.3284 50.5235 51.9243 53.2309 49.2169C55.9383 46.5094 60.343 46.5094 63.0504 49.2169Z" fill="#C50143"/>
<path d="M30.1364 28.2581C30.2196 27.1135 31.1309 26.2089 32.2719 26.1233C37.9561 25.6953 43.6181 26.3945 49.168 28.0918C48.7503 31.9046 46.7782 36.0308 43.4114 39.3976C40.0042 42.8042 35.7658 44.7757 31.8849 45.1446C30.3902 39.9063 29.6813 34.2962 30.1364 28.2581V28.2581Z" fill="#0090CF"/>
<path d="M46.6841 42.6707C50.5355 38.8193 52.8874 34.2 53.642 29.7025C67.5401 35.4025 80.8446 47.8499 91.3579 65.336L86.1347 70.5592C82.566 69.1103 78.2336 68.7276 75.4858 71.4748C72.7344 74.2268 73.1244 78.5574 74.5727 82.1213L69.1777 87.5162C55.7238 79.4078 40.0602 66.6331 33.3995 49.6369C38.0067 48.9408 42.7701 46.5848 46.6841 42.6707ZM49.9581 62.3092C54.4695 66.8206 61.8113 66.8206 66.3232 62.3092C70.8352 57.7972 70.8352 50.4548 66.3232 45.9435C61.8113 41.4321 54.4695 41.4321 49.9581 45.9435C45.4461 50.4554 45.4461 57.7972 49.9581 62.3092Z" fill="#333333"/>
</g>
<defs>
<filter id="filter0_d" x="0" y="0" width="155" height="155" filterUnits="userSpaceOnUse" color-interpolation-filters="sRGB">
<feFlood flood-opacity="0" result="BackgroundImageFix"/>
<feColorMatrix in="SourceAlpha" type="matrix" values="0 0 0 0 0 0 0 0 0 0 0 0 0 0 0 0 0 0 127 0"/>
<feOffset dy="4"/>
<feGaussianBlur stdDeviation="15"/>
<feColorMatrix type="matrix" values="0 0 0 0 0 0 0 0 0 0 0 0 0 0 0 0 0 0 0.1 0"/>
<feBlend mode="normal" in2="BackgroundImageFix" result="effect1_dropShadow"/>
<feBlend mode="normal" in="SourceGraphic" in2="effect1_dropShadow" result="shape"/>
</filter>
<clipPath id="clip0">
<rect width="79" height="79" fill="white" transform="matrix(-1 0 0 1 109 26)"/>
</clipPath>
</defs>
</svg>
