<svg xmlns="http://www.w3.org/2000/svg" width="42.976" height="41.531" viewBox="0 0 42.976 41.531"><defs><style>.a{fill:#fcb800;stroke:#fcb800;}</style></defs><g transform="translate(0.523 -0.5)"><path class="a" d="M39.059,26.186a15.13,15.13,0,0,0,2.869-8.824C41.929,8.34,33.778,1,23.76,1c-6.9,0-13.276,3.593-16.313,9.164A15.9,15.9,0,0,0,0,23.362a15.132,15.132,0,0,0,2.869,8.824c-.356,3.9-1.3,6.787-2.665,8.152A.7.7,0,0,0,.7,41.531a.656.656,0,0,0,.1-.007,32.367,32.367,0,0,0,10-3.2,19.714,19.714,0,0,0,7.368,1.4,18.873,18.873,0,0,0,14.569-6.6,35.177,35.177,0,0,0,8.394,2.4.665.665,0,0,0,.1.007.7.7,0,0,0,.494-1.193C40.358,32.973,39.415,30.083,39.059,26.186Zm-20.89,12.14a18.414,18.414,0,0,1-5.845-.942c2.33-1.461,2.332-1.576,2.331-1.971a.711.711,0,0,0-.341-.6.7.7,0,0,0-.928.189c-.345.27-1.753,1.172-3.006,1.945a27.735,27.735,0,0,1-8.071,2.881,20.16,20.16,0,0,0,1.976-7.782.7.7,0,0,0-.133-.473A13.768,13.768,0,0,1,1.4,23.362,14.555,14.555,0,0,1,8.516,11.136c.268-.169.54-.332.818-.486.066-.036.131-.074.2-.11.292-.157.59-.3.891-.444q.166-.078.333-.152c.307-.136.618-.265.933-.383.11-.041.222-.078.333-.117q.373-.132.753-.247c.116-.036.231-.073.349-.106.328-.093.661-.175,1-.249.117-.026.234-.049.352-.073q.452-.091.91-.161c.071-.01.14-.024.211-.034.369-.051.741-.088,1.115-.117L17,8.437c.388-.024.778-.041,1.17-.041,9.247,0,16.771,6.713,16.771,14.964,0,.338-.017.674-.043,1.008-.006.087-.014.174-.022.261-.029.31-.066.618-.117.923,0,.026-.007.052-.011.079-.055.319-.125.635-.2.949-.024.1-.049.192-.075.289-.075.277-.157.551-.249.823-.024.071-.049.143-.075.214-.1.266-.2.529-.312.79q-.067.156-.138.312c-.125.273-.256.544-.4.811-.042.078-.087.153-.131.23q-.189.335-.4.663c-.061.1-.122.192-.185.287-.173.258-.352.513-.543.762A17.394,17.394,0,0,1,18.169,38.326Zm15.44-6.339c.029-.042.053-.085.081-.127q.244-.361.468-.732c.084-.14.161-.281.24-.423s.17-.307.25-.464.148-.288.218-.433c.1-.215.2-.434.292-.654.071-.169.138-.339.2-.51.075-.2.146-.393.212-.592q.066-.2.127-.4c.066-.217.125-.437.181-.658.025-.1.055-.2.078-.3.072-.313.133-.63.184-.95.016-.1.029-.2.043-.3.035-.248.064-.5.087-.75.009-.1.019-.2.026-.3.024-.34.04-.681.04-1.025C36.338,14.34,28.188,7,18.169,7c-.335,0-.667.01-1,.026-.12.006-.239.017-.358.024-.208.014-.416.028-.622.048-.149.015-.3.034-.444.051-.173.021-.345.042-.516.067s-.328.051-.492.08c-.148.026-.3.052-.443.082-.178.035-.356.071-.532.111-.124.028-.247.058-.37.089-.193.048-.386.094-.576.147-.085.024-.168.05-.252.075a19.3,19.3,0,0,0-2.144.766c-.05.021-.1.041-.15.062s-.129.052-.192.08A17.562,17.562,0,0,1,23.76,2.4c9.247,0,16.771,6.713,16.771,14.964a13.772,13.772,0,0,1-2.753,8.21.7.7,0,0,0-.133.473,20.163,20.163,0,0,0,1.976,7.781A32.676,32.676,0,0,1,33.609,31.987Z" transform="translate(0)"/><path class="a" d="M11.8,29a2.8,2.8,0,1,0,2.8,2.8A2.8,2.8,0,0,0,11.8,29Zm0,4.193a1.4,1.4,0,1,1,1.4-1.4A1.4,1.4,0,0,1,11.8,33.193Z" transform="translate(-2.711 -8.433)"/><path class="a" d="M24.8,29a2.8,2.8,0,1,0,2.8,2.8A2.8,2.8,0,0,0,24.8,29Zm0,4.193a1.4,1.4,0,1,1,1.4-1.4A1.4,1.4,0,0,1,24.8,33.193Z" transform="translate(-6.626 -8.433)"/><path class="a" d="M37.8,29a2.8,2.8,0,1,0,2.8,2.8A2.8,2.8,0,0,0,37.8,29Zm0,4.193a1.4,1.4,0,1,1,1.4-1.4A1.4,1.4,0,0,1,37.8,33.193Z" transform="translate(-10.542 -8.433)"/></g></svg>