<svg xmlns="http://www.w3.org/2000/svg" width="45.247" height="49.488" viewBox="0 0 45.247 49.488"><defs><style>.a{fill:#fcb800;}</style></defs><g transform="translate(-20.982 0)"><g transform="translate(20.982 0)"><path class="a" d="M30.2,9.813a19.728,19.728,0,0,1,25.648-.677l-5.871.222a1.365,1.365,0,0,0,.051,2.728h.051l9.014-.333A1.361,1.361,0,0,0,60.4,10.389v-.162h0l-.333-8.913a1.365,1.365,0,0,0-2.728.1L57.551,7a22.438,22.438,0,0,0-29.185.788,22.446,22.446,0,0,0-6.75,21.939,1.358,1.358,0,0,0,1.324,1.041,1.182,1.182,0,0,0,.323-.04,1.366,1.366,0,0,0,1-1.647A19.717,19.717,0,0,1,30.2,9.813Z" transform="translate(-20.982 0)"/><path class="a" d="M116.218,186.255a1.363,1.363,0,0,0-2.648.647,19.713,19.713,0,0,1-31.741,19.817l5.942-.536a1.365,1.365,0,0,0-.253-2.718l-8.984.808a1.363,1.363,0,0,0-1.233,1.485l.808,8.984a1.362,1.362,0,0,0,1.354,1.243.491.491,0,0,0,.121-.01,1.363,1.363,0,0,0,1.233-1.485l-.485-5.467A22.287,22.287,0,0,0,93.3,213.964c.384.02.768.03,1.142.03a22.441,22.441,0,0,0,21.777-27.74Z" transform="translate(-71.605 -166.497)"/></g></g></svg>