<svg xmlns="http://www.w3.org/2000/svg" width="42.98" height="50.473" viewBox="0 0 42.98 50.473"><defs><style>.a{fill:#fcb800;}</style></defs><g transform="translate(0 0.001)"><path class="a" d="M42.931,13.694v-.039c-.022-.485-.037-1-.045-1.569a5.349,5.349,0,0,0-5.037-5.24A20.758,20.758,0,0,1,23.719.891L23.686.859a3.23,3.23,0,0,0-4.39,0l-.033.031A20.76,20.76,0,0,1,5.135,6.846,5.349,5.349,0,0,0,.1,12.086c-.008.567-.023,1.08-.045,1.568l0,.091C-.062,19.663-.2,27.028,2.261,33.712a25.417,25.417,0,0,0,6.1,9.5,31.9,31.9,0,0,0,11.933,7.058,3.7,3.7,0,0,0,.489.133,3.612,3.612,0,0,0,1.42,0,3.707,3.707,0,0,0,.491-.134,31.919,31.919,0,0,0,11.92-7.062,25.453,25.453,0,0,0,6.1-9.5C43.183,27,43.043,19.622,42.931,13.694Zm-5,18.987c-2.6,7.045-7.9,11.884-16.216,14.791a.745.745,0,0,1-.094.025.665.665,0,0,1-.26,0,.738.738,0,0,1-.093-.025c-8.322-2.9-13.63-7.738-16.227-14.783C2.77,26.527,2.9,19.766,3.012,13.8v-.033c.023-.513.039-1.049.047-1.639A2.378,2.378,0,0,1,5.3,9.8a25.985,25.985,0,0,0,8.82-1.94,23.075,23.075,0,0,0,7.188-4.829.273.273,0,0,1,.367,0,23.084,23.084,0,0,0,7.187,4.829,25.986,25.986,0,0,0,8.82,1.94,2.377,2.377,0,0,1,2.24,2.327c.009.593.024,1.13.047,1.639C40.083,19.74,40.208,26.506,37.931,32.681Zm0,0" transform="translate(0)"/><path class="a" d="M102.977,128.41a12.579,12.579,0,1,0,12.579,12.579A12.593,12.593,0,0,0,102.977,128.41Zm0,22.2a9.617,9.617,0,1,1,9.617-9.617A9.628,9.628,0,0,1,102.977,150.606Zm0,0" transform="translate(-81.487 -115.752)"/><path class="a" d="M163.629,212.425l-5.842,5.842-1.586-1.586a1.481,1.481,0,1,0-2.094,2.094l2.633,2.633a1.481,1.481,0,0,0,2.094,0l6.89-6.89a1.481,1.481,0,1,0-2.094-2.094Zm0,0" transform="translate(-138.524 -191.094)"/></g></svg>