<svg xmlns="http://www.w3.org/2000/svg" width="54.356" height="54.357" viewBox="0 0 54.356 54.357"><defs><style>.a{fill:#fcb800;}</style></defs><g transform="translate(-0.001 0)"><g transform="translate(26.711 25.524)"><path class="a" d="M253.4,240.73a1.062,1.062,0,1,0,0,1.5A1.062,1.062,0,0,0,253.4,240.73Z" transform="translate(-251.587 -240.418)"/></g><g transform="translate(32.976 10.767)"><path class="a" d="M319.662,102.971a5.308,5.308,0,1,0,0,7.507A5.306,5.306,0,0,0,319.662,102.971Zm-1.5,6.006a3.185,3.185,0,1,1,0-4.5A3.189,3.189,0,0,1,318.161,108.977Z" transform="translate(-310.603 -101.415)"/></g><g transform="translate(10.195 0)"><g transform="translate(0 0)"><path class="a" d="M139.87.311a1.058,1.058,0,0,0-.789-.31,47.163,47.163,0,0,0-12.749,2.64,35.545,35.545,0,0,0-13.487,8.18c-.786.786-1.55,1.618-2.281,2.484-3.466-2.04-6.244-1.4-8-.461-4.043,2.164-6.545,8.038-6.545,12.24a1.062,1.062,0,0,0,1.813.751,6.759,6.759,0,0,1,5.621-1.886l.372.372a37.341,37.341,0,0,0-1.753,5.156,3.005,3.005,0,0,0,.129,1.844,10.054,10.054,0,0,0-2.867,2.021c-2.733,2.733-3.288,9.393-3.31,9.675a1.062,1.062,0,0,0,1.058,1.145q.042,0,.084,0c.282-.022,6.943-.577,9.675-3.31a10.054,10.054,0,0,0,2.021-2.866,3,3,0,0,0,1.845.128,37.344,37.344,0,0,0,5.156-1.753l.372.372a6.759,6.759,0,0,1-1.886,5.621,1.062,1.062,0,0,0,.751,1.812c4.2,0,10.077-2.5,12.24-6.545.94-1.756,1.579-4.533-.461-8,.865-.731,1.7-1.5,2.484-2.281a35.548,35.548,0,0,0,8.18-13.487A47.162,47.162,0,0,0,140.18,1.1,1.062,1.062,0,0,0,139.87.311ZM98.392,22.8c.66-3.192,2.575-6.694,5.174-8.085a5.656,5.656,0,0,1,5.653.267,42.926,42.926,0,0,0-4.461,7.271,1.119,1.119,0,0,0-.562-.33A9.074,9.074,0,0,0,98.392,22.8Zm6.946,16.548c-1.46,1.46-4.884,2.23-7.049,2.544.314-2.164,1.084-5.589,2.544-7.048a7.651,7.651,0,0,1,2.718-1.786l3.573,3.573A7.65,7.65,0,0,1,105.337,39.348Zm4.84-3.294a1,1,0,0,1-.928-.3l-2.079-2.079-2.742-2.742a1,1,0,0,1-.3-.928,34.471,34.471,0,0,1,1.326-4.055l8.779,8.779A34.449,34.449,0,0,1,110.177,36.054Zm15.288.561c-1.391,2.6-4.893,4.514-8.085,5.174a9.036,9.036,0,0,0,.87-5.831,1.109,1.109,0,0,0-.323-.536,42.941,42.941,0,0,0,7.271-4.461A5.657,5.657,0,0,1,125.466,36.615Zm2.394-10.78a38.534,38.534,0,0,1-3.062,2.747,40.789,40.789,0,0,1-8.463,5.246l-9.982-9.981a40.782,40.782,0,0,1,5.246-8.463,38.531,38.531,0,0,1,2.747-3.062,33.1,33.1,0,0,1,12.068-7.45l8.9,8.9A33.1,33.1,0,0,1,127.859,25.835Zm8.214-14.307-7.421-7.421a47.73,47.73,0,0,1,9.316-1.895A47.737,47.737,0,0,1,136.073,11.528Z" transform="translate(-96.018 0)"/></g></g><g transform="translate(20.706 43.54)"><path class="a" d="M199.835,410.432a1.062,1.062,0,0,0-1.5,0l-3,3a1.062,1.062,0,0,0,1.5,1.5l3-3A1.062,1.062,0,0,0,199.835,410.432Z" transform="translate(-195.021 -410.121)"/></g><g transform="translate(5.691 28.527)"><path class="a" d="M58.408,269.012a1.062,1.062,0,0,0-1.5,0l-3,3a1.062,1.062,0,1,0,1.5,1.5l3-3A1.062,1.062,0,0,0,58.408,269.012Z" transform="translate(-53.592 -268.701)"/></g><g transform="translate(9.009 45.043)"><path class="a" d="M93.855,424.582a1.062,1.062,0,0,0-1.5,0l-7.192,7.191a1.062,1.062,0,1,0,1.5,1.5l7.192-7.191A1.062,1.062,0,0,0,93.855,424.582Z" transform="translate(-84.851 -424.271)"/></g><g transform="translate(0.516 45.043)"><path class="a" d="M13.855,424.582a1.062,1.062,0,0,0-1.5,0l-7.192,7.191a1.062,1.062,0,1,0,1.5,1.5l7.192-7.191A1.062,1.062,0,0,0,13.855,424.582Z" transform="translate(-4.851 -424.271)"/></g><g transform="translate(0.001 36.033)"><g transform="translate(0)"><path class="a" d="M9,339.721a1.062,1.062,0,0,0-1.5,0L.312,346.913a1.062,1.062,0,0,0,1.5,1.5L9,341.222A1.062,1.062,0,0,0,9,339.721Z" transform="translate(-0.001 -339.41)"/></g></g><g transform="translate(29.714 21.02)"><path class="a" d="M283.185,198.3a1.062,1.062,0,0,0-1.5,0l-1.5,1.5a1.062,1.062,0,1,0,1.5,1.5l1.5-1.5A1.062,1.062,0,0,0,283.185,198.3Z" transform="translate(-279.871 -197.99)"/></g></g></svg>